<?xml version="1.0" standalone="no"?>
<!DOCTYPE svg PUBLIC "-//W3C//DTD SVG 20010904//EN"
 "http://www.w3.org/TR/2001/REC-SVG-20010904/DTD/svg10.dtd">
<svg version="1.0" xmlns="http://www.w3.org/2000/svg"
 width="512.000000pt" height="512.000000pt" viewBox="0 0 512.000000 512.000000"
 preserveAspectRatio="xMidYMid meet">

<g transform="translate(0.000000,512.000000) scale(0.100000,-0.100000)"
fill="#ff4646" stroke="none">
<path d="M1116 4719 c-429 -59 -801 -329 -986 -714 -143 -301 -164 -668 -54
-977 36 -100 115 -250 176 -333 29 -40 526 -546 1167 -1187 885 -887 1121
-1118 1141 -1118 20 0 256 231 1151 1127 961 962 1134 1140 1181 1213 154 236
221 456 221 725 0 258 -71 492 -214 710 -73 111 -242 278 -357 353 -441 287
-1002 279 -1435 -20 -43 -30 -181 -154 -309 -279 -127 -123 -234 -225 -238
-227 -4 -1 -85 76 -181 171 -96 96 -205 202 -244 237 -173 155 -376 257 -610
305 -96 20 -314 28 -409 14z m3058 -349 c95 -24 208 -80 294 -145 182 -139
312 -389 312 -602 0 -83 -18 -113 -68 -113 -47 0 -69 34 -75 121 -26 325 -290
590 -614 615 -92 8 -123 28 -123 80 0 24 8 39 28 54 24 20 35 21 100 16 39 -4
105 -15 146 -26z"/>
</g>
</svg>
